<?xml version="1.0" encoding="UTF-8" standalone="no"?>
<svg 
  version="1.1" 
  xmlns="http://www.w3.org/2000/svg" 
  xmlns:xlink="http://www.w3.org/1999/xlink" 
  xmlns:svg="http://www.w3.org/2000/svg"
  xmlns:rdf="http://www.w3.org/1999/02/22-rdf-syntax-ns#"
  xmlns:cc="http://creativecommons.org/ns#"
  xmlns:dc="http://purl.org/dc/elements/1.1/"
  viewBox="0 0 768 768"
  width="768"
  height="768"
>
<style>svg {background-color: white; }</style>"
<metadata id="metadata1">
Created by https://svgstud.io and licensed under CC-BY-SA 4.0 license. Please attribute https://svgstud.io
</metadata>
<metadata id="prompt">
Use white background; Use smooth shapes, playful and whimsical, cartoon-style; use symbolism over realistic that clearly represents the users request. Use clean and refined lines. LIMIT TO ONLY 2 COLORS! A serene, whimsical scene of a fluffy, silver-gray Persian cat with luminous green eyes, curled contentedly atop a billowing, cotton-like cloud. The cloud glows softly with golden sunlight, set against a vast, gradient sky transitioning from warm peach to lavender at dusk. Delicate sparkles and tiny stars float around the cat, while the cloud’s edges shimmer with a faint iridescence. Below, a distant earthscape of rolling hills and a shimmering river reflects the twilight hues. The cat’s fur ripples gently in the breeze, and its tail sways playfully, blending ethereal translucence with hyper-realistic texture. Soft, diffused lighting creates a dreamlike atmosphere, rendered in a blend of anime-inspired fantasy and photorealistic detail, with soft pastel accents and intricate, glowing patterns on the cat’s collar
</metadata>
<metadata id="version">
7
</metadata>
<metadata id="metadata2">
<rdf:RDF>
<cc:Work
    rdf:about="">
    <cc:license
    rdf:resource="http://creativecommons.org/licenses/by-sa/4.0/" />
    <dc:creator>
        <cc:Agent>
            <dc:title>https://svgstud.io</dc:title>
        </cc:Agent>
    </dc:creator>
</cc:Work>
<cc:License
    rdf:about="http://creativecommons.org/licenses/by-sa/4.0/">
    <cc:permits
    rdf:resource="http://creativecommons.org/ns#Reproduction" />
    <cc:permits
    rdf:resource="http://creativecommons.org/ns#Distribution" />
    <cc:requires
    rdf:resource="http://creativecommons.org/ns#Notice" />
    <cc:requires
    rdf:resource="http://creativecommons.org/ns#Attribution" />
    <cc:permits
    rdf:resource="http://creativecommons.org/ns#DerivativeWorks" />
    <cc:requires
    rdf:resource="http://creativecommons.org/ns#ShareAlike" />
</cc:License>
</rdf:RDF>
</metadata>
<metadata id="uid">
899f2496ad644136cad211460e66c8dd7d54140df003a7a75516a8144fd0d1ee
</metadata>
<path stroke="none" fill="black" fill-rule="evenodd" d="M339.00,694.82C334.88,694.81 327.00,694.19 321.50,693.44C316.00,692.70 309.48,691.55 307.00,690.89C304.52,690.23 300.90,688.89 298.95,687.92C296.99,686.95 294.87,685.01 294.23,683.60C293.58,682.19 292.77,678.22 292.42,674.77C291.77,668.50 291.77,668.50 276.64,668.41C268.31,668.36 255.99,667.57 249.26,666.65C242.54,665.73 234.63,664.09 231.70,662.99C228.77,661.89 225.20,659.76 223.77,658.25C222.34,656.74 220.66,653.56 220.03,651.20C219.40,648.81 219.19,644.93 219.55,642.49C220.21,638.08 220.21,638.08 211.55,634.08C206.78,631.88 199.64,627.94 195.69,625.33C191.74,622.72 185.85,618.09 182.60,615.04C179.36,611.99 174.09,606.24 170.90,602.25C167.71,598.26 163.08,591.28 160.59,586.72C158.11,582.17 154.30,573.06 152.12,566.47C149.94,559.89 147.45,550.26 146.58,545.07C145.71,539.89 145.00,529.86 145.00,522.78C145.00,514.96 145.62,506.92 146.58,502.27C147.45,498.07 149.47,492.03 151.08,488.84C152.69,485.66 154.00,482.80 154.00,482.48C154.00,482.16 152.42,483.10 150.50,484.57C148.57,486.04 147.00,486.73 147.00,486.12C147.00,485.50 146.38,485.00 145.63,485.00C144.54,485.00 144.44,484.04 145.14,480.28C145.63,477.68 146.93,473.12 148.05,470.14C149.16,467.16 151.82,461.07 153.95,456.61C156.08,452.15 160.04,445.12 162.74,441.00C165.44,436.88 170.07,430.57 173.04,427.00C176.00,423.43 183.17,415.61 188.96,409.64C194.76,403.67 203.57,395.24 208.55,390.92C213.53,386.60 218.60,381.28 219.82,379.11C222.04,375.15 222.04,375.15 210.77,369.64C204.57,366.60 197.81,362.48 195.73,360.48C193.66,358.48 190.10,354.07 187.82,350.67C185.54,347.28 182.39,343.02 180.83,341.22C179.28,339.41 178.00,337.41 178.00,336.78C178.00,336.15 175.89,331.33 173.31,326.07C170.23,319.78 168.66,315.30 168.73,313.00C168.78,311.07 168.24,308.82 167.52,308.00C166.79,307.18 165.29,304.87 164.18,302.87C163.07,300.87 162.08,298.39 161.97,297.37C161.86,296.34 161.82,294.94 161.88,294.25C161.95,293.56 162.84,293.00 163.88,293.00C164.91,293.00 166.32,292.33 167.00,291.50C167.68,290.68 169.76,290.00 171.62,290.00C173.48,290.00 175.00,289.63 175.00,289.19C175.00,288.74 173.65,287.08 172.00,285.50C170.35,283.92 169.00,281.91 169.00,281.04C169.00,279.86 171.09,279.02 177.15,277.77C181.64,276.84 187.71,274.87 190.65,273.38C193.58,271.90 197.50,269.16 199.35,267.31C201.21,265.46 203.45,262.27 204.33,260.22C205.22,258.18 208.24,250.26 211.05,242.63C216.15,228.77 216.15,228.77 213.65,226.13C212.27,224.69 210.02,221.25 208.65,218.50C207.28,215.75 205.85,212.28 205.48,210.79C205.11,209.30 202.80,206.44 200.35,204.43C197.19,201.84 195.98,200.16 196.20,198.65C196.38,197.38 198.12,195.64 200.57,194.29C204.63,192.05 204.63,192.05 202.39,179.78C201.15,173.02 199.66,162.32 199.08,156.00C198.49,149.68 198.02,140.45 198.03,135.50C198.04,128.82 198.53,125.42 199.95,122.31C201.55,118.77 202.43,118.01 205.59,117.42C207.65,117.03 212.22,117.25 215.75,117.90C219.28,118.55 224.27,119.78 226.83,120.63C229.40,121.48 235.74,124.17 240.92,126.61C246.09,129.04 253.29,132.90 256.92,135.18C260.54,137.46 268.29,142.85 274.14,147.16C279.99,151.47 285.36,155.00 286.08,155.00C286.80,155.00 291.91,153.24 297.44,151.08C302.97,148.93 310.97,146.45 315.21,145.58C319.45,144.71 325.14,144.00 327.86,144.00C332.07,144.00 333.45,143.47 337.09,140.42C339.45,138.45 343.53,135.75 346.16,134.42C349.51,132.72 352.59,132.00 356.50,132.00C360.39,132.00 362.23,132.43 362.61,133.42C362.91,134.21 363.78,135.09 364.54,135.38C365.31,135.67 368.31,135.17 371.22,134.26C374.75,133.16 379.74,132.65 386.24,132.72C393.28,132.80 398.56,133.53 405.24,135.35C410.34,136.73 418.55,138.13 423.50,138.45C428.45,138.78 435.36,139.76 438.86,140.63C442.36,141.51 449.11,143.75 453.86,145.61C458.60,147.48 463.58,149.00 464.92,149.00C466.27,149.00 471.89,146.32 477.43,143.05C482.97,139.77 491.32,135.31 496.00,133.13C500.68,130.95 507.38,128.20 510.89,127.02C514.41,125.85 520.77,124.37 525.04,123.75C531.03,122.88 533.74,122.90 536.91,123.86C539.18,124.53 542.62,126.49 544.57,128.19C546.51,129.90 548.72,132.49 549.47,133.94C550.22,135.40 551.55,139.33 552.42,142.69C553.29,146.04 554.48,153.45 555.06,159.14C555.82,166.52 555.81,174.06 555.04,185.34C554.44,194.06 553.03,205.90 551.92,211.67C550.81,217.44 548.06,227.34 545.81,233.66C541.73,245.17 541.73,245.17 546.68,250.33C549.40,253.17 552.77,257.07 554.17,259.00C555.57,260.93 557.64,264.32 558.77,266.55C559.91,268.77 561.14,272.21 561.51,274.18C561.88,276.16 561.76,278.03 561.24,278.35C560.72,278.67 558.55,277.68 556.40,276.14C554.26,274.61 550.25,272.40 547.50,271.24C544.75,270.08 542.36,269.52 542.19,270.01C542.01,270.49 543.27,273.28 544.98,276.19C546.70,279.11 550.75,286.92 554.00,293.55C557.25,300.17 561.24,309.62 562.88,314.55C564.52,319.47 566.60,326.88 567.50,331.00C568.40,335.12 569.37,344.35 569.64,351.50C570.00,360.84 569.75,365.77 568.78,368.99C567.99,371.59 566.73,373.62 565.79,373.80C564.81,373.99 563.02,372.43 561.20,369.79C559.57,367.42 554.75,362.17 550.51,358.14C546.26,354.11 542.43,351.19 541.99,351.65C541.54,352.12 541.59,354.98 542.09,358.00C542.59,361.02 542.74,365.52 542.41,368.00C542.08,370.48 541.39,374.19 540.87,376.25C540.28,378.60 539.33,380.00 538.34,380.00C537.47,380.00 534.09,378.38 530.82,376.39C527.56,374.41 524.68,372.99 524.43,373.24C524.18,373.48 524.68,375.67 525.53,378.09C526.38,380.52 530.40,389.70 534.46,398.50C538.51,407.30 544.79,420.95 548.41,428.83C552.04,436.71 555.00,444.07 555.00,445.18C555.00,446.35 554.16,447.41 553.00,447.71C551.90,448.00 551.00,448.30 551.00,448.37C551.00,448.45 552.97,453.64 555.38,459.91C559.76,471.31 559.76,471.31 568.63,473.95C573.51,475.40 580.34,478.11 583.82,479.97C587.29,481.83 593.14,486.14 596.82,489.55C600.96,493.39 605.27,498.75 608.16,503.62C610.72,507.96 613.97,515.10 615.38,519.50C616.78,523.90 618.46,529.75 619.10,532.50C619.74,535.25 620.23,542.23 620.18,548.00C620.13,554.98 619.43,561.06 618.11,566.15C617.02,570.36 614.92,576.21 613.45,579.15C611.97,582.09 608.85,587.20 606.51,590.50C604.16,593.81 598.90,599.66 594.81,603.50C590.72,607.35 584.85,612.00 581.76,613.83C578.67,615.66 572.62,618.64 568.32,620.44C564.02,622.25 558.48,624.46 556.00,625.36C553.52,626.26 548.69,629.51 545.25,632.58C541.81,635.65 539.00,638.74 539.00,639.46C539.00,640.17 540.46,641.30 542.25,641.95C544.04,642.61 546.97,643.87 548.78,644.75C550.58,645.62 551.89,646.83 551.69,647.42C551.50,648.01 546.87,649.74 541.42,651.25C535.96,652.76 527.00,655.12 521.50,656.51C516.00,657.89 503.85,660.10 494.50,661.43C485.15,662.75 473.45,664.08 468.50,664.39C463.55,664.70 459.39,664.97 459.25,664.98C459.11,664.99 459.00,665.45 459.00,666.00C459.00,666.55 459.79,667.01 460.75,667.02C462.25,667.03 462.28,667.17 461.00,668.00C460.18,668.53 456.01,668.98 451.75,668.98C447.26,668.99 444.00,669.42 444.00,670.00C444.00,670.55 442.56,671.00 440.80,671.00C438.31,671.00 437.87,671.27 438.80,672.20C439.46,672.86 440.00,673.70 440.00,674.06C440.00,674.42 437.54,674.97 434.53,675.28C431.52,675.60 427.36,676.38 425.28,677.04C423.20,677.69 417.37,679.78 412.33,681.67C407.29,683.57 398.74,685.96 393.33,686.99C387.92,688.01 377.43,689.85 370.00,691.08C362.57,692.30 354.25,693.65 351.50,694.08C348.75,694.50 343.12,694.84 339.00,694.82zM341.00,687.36C346.23,687.04 353.20,685.94 356.50,684.90C359.80,683.87 367.90,682.33 374.50,681.48C381.10,680.62 389.13,679.27 392.35,678.46C395.57,677.65 399.49,676.08 401.06,674.96C402.62,673.84 405.84,670.72 408.20,668.01C410.57,665.30 414.39,659.35 416.69,654.79C419.00,650.23 423.33,641.33 426.32,635.00C429.31,628.67 434.51,616.86 437.88,608.74C441.24,600.63 444.00,593.82 444.00,593.61C444.00,593.41 447.63,585.02 452.07,574.96C456.51,564.91 462.85,551.27 466.17,544.66C469.49,538.04 476.81,524.27 482.44,514.06C488.08,503.85 495.04,491.11 497.91,485.75C500.79,480.39 503.33,476.00 503.56,476.00C503.79,476.00 503.70,479.49 503.36,483.75C502.97,488.64 501.63,494.45 499.73,499.50C498.08,503.90 493.94,513.35 490.53,520.50C487.11,527.65 482.30,537.10 479.83,541.50C477.35,545.90 474.31,551.30 473.06,553.50C471.81,555.70 470.44,557.95 470.03,558.50C469.61,559.05 468.01,563.33 466.48,568.00C464.95,572.67 463.34,576.74 462.91,577.03C462.47,577.31 461.65,579.58 461.10,582.06C460.54,584.54 458.03,592.70 455.51,600.19C453.00,607.68 450.28,616.35 449.47,619.45C448.66,622.56 448.02,626.54 448.04,628.30C448.05,630.06 448.68,632.60 449.43,633.95C450.17,635.30 450.59,636.90 450.36,637.51C450.12,638.13 450.88,639.49 452.05,640.54C453.58,641.93 455.57,642.44 459.33,642.39C462.17,642.35 468.10,642.24 472.50,642.15C477.04,642.05 479.95,641.62 479.22,641.16C478.41,640.65 479.15,640.33 481.22,640.29C483.03,640.26 486.75,639.97 489.50,639.64C492.72,639.25 493.79,639.35 492.50,639.92C491.04,640.56 491.77,640.75 495.25,640.64C497.86,640.56 500.00,640.25 500.00,639.94C500.00,639.62 501.46,638.61 503.25,637.68C505.04,636.74 507.91,635.13 509.62,634.08C511.55,632.91 512.74,632.63 512.72,633.34C512.70,633.98 512.76,635.29 512.84,636.25C512.93,637.21 513.45,638.00 514.00,638.00C514.55,638.00 515.00,637.33 515.00,636.50C515.00,635.67 515.67,635.00 516.50,635.00C517.33,635.00 518.00,634.55 518.00,634.00C518.00,633.45 518.64,633.00 519.43,633.00C520.21,633.00 521.74,631.88 522.82,630.50C523.90,629.12 525.29,628.00 525.89,628.00C526.50,628.00 527.00,627.19 527.00,626.20C527.00,625.20 528.52,622.73 530.38,620.70C532.25,618.66 534.22,617.00 534.78,617.00C535.33,617.00 536.04,617.67 536.36,618.49C536.67,619.31 536.42,619.87 535.80,619.74C535.17,619.61 534.16,620.46 533.54,621.64C532.93,622.82 531.84,624.49 531.12,625.35C530.41,626.21 530.09,627.33 530.40,627.84C530.72,628.35 530.04,629.02 528.89,629.32C527.74,629.62 527.08,630.32 527.43,630.88C527.77,631.44 527.12,632.40 525.98,633.01C524.43,633.84 524.08,634.68 524.60,636.30C525.21,638.25 525.11,638.34 523.62,637.10C522.70,636.34 521.66,636.00 521.31,636.36C520.96,636.71 521.19,637.00 521.83,637.00C522.47,637.00 523.00,637.50 523.00,638.11C523.00,638.72 522.33,638.95 521.50,638.64C520.67,638.32 520.00,638.50 520.00,639.03C520.00,639.56 520.48,640.00 521.06,640.00C521.64,640.00 521.80,640.51 521.42,641.14C521.03,641.76 522.24,641.20 524.11,639.89C525.97,638.57 527.65,637.16 527.83,636.75C528.02,636.34 528.89,636.00 529.77,636.00C531.10,636.00 531.05,635.74 529.44,634.49C527.58,633.03 527.61,632.98 530.21,633.24C532.22,633.43 534.40,632.23 538.71,628.55C541.90,625.83 546.58,621.10 549.11,618.05C551.65,615.00 555.13,610.00 556.85,606.94C558.57,603.88 560.91,598.71 562.04,595.44C563.17,592.17 564.75,586.43 565.55,582.68C566.46,578.42 567.00,570.13 567.00,560.54C567.00,552.11 566.54,540.55 565.97,534.86C565.41,529.16 564.03,519.33 562.93,513.00C561.82,506.68 559.57,495.65 557.92,488.50C556.28,481.35 553.11,470.10 550.88,463.50C548.65,456.90 545.36,448.57 543.55,445.00C541.75,441.43 539.94,437.42 539.52,436.10C538.77,433.69 538.77,433.69 542.38,435.93C544.37,437.16 546.00,437.74 546.00,437.23C546.00,436.72 543.24,430.50 539.87,423.40C536.51,416.31 531.82,406.00 529.47,400.50C527.12,395.00 523.31,386.56 521.01,381.75C517.87,375.18 516.34,373.00 514.88,373.00C513.81,373.00 512.68,373.68 512.35,374.52C512.03,375.35 511.26,375.93 510.64,375.81C510.01,375.68 506.35,377.09 502.50,378.94C498.65,380.79 495.24,382.70 494.92,383.19C494.60,383.67 493.59,383.78 492.68,383.43C491.67,383.04 490.79,383.38 490.44,384.29C490.09,385.20 489.10,385.58 487.89,385.26C486.78,384.97 485.38,385.40 484.70,386.23C484.04,387.05 481.48,388.25 479.00,388.89C476.52,389.54 470.00,390.97 464.50,392.07C459.00,393.17 449.85,394.72 444.16,395.52C438.48,396.32 432.18,397.38 430.16,397.89C428.15,398.39 422.90,399.04 418.50,399.34C413.22,399.69 411.35,399.56 413.00,398.97C414.53,398.43 411.24,398.36 404.50,398.79C398.45,399.18 380.68,399.45 365.00,399.38C349.32,399.32 332.00,398.74 326.50,398.09C321.00,397.44 312.68,396.71 308.00,396.45C303.32,396.20 300.06,396.26 300.75,396.58C301.60,396.98 302.00,399.82 302.00,405.52C302.00,410.12 301.60,414.13 301.11,414.43C300.62,414.74 299.50,411.84 298.63,407.99C297.54,403.15 297.34,400.23 297.99,398.51C298.74,396.55 298.58,395.84 297.19,395.10C296.23,394.59 292.08,393.87 287.97,393.50C283.86,393.13 279.15,392.44 277.50,391.95C275.85,391.47 273.35,390.88 271.94,390.64C270.54,390.40 261.99,388.08 252.94,385.49C243.90,382.90 235.38,380.54 234.00,380.23C231.76,379.74 231.65,379.85 232.87,381.34C234.09,382.81 233.95,383.00 231.62,383.00C229.68,383.00 229.00,382.49 229.00,381.03C229.00,379.66 228.53,379.24 227.44,379.66C226.58,379.99 223.85,384.52 221.37,389.73C218.88,394.93 215.35,403.79 213.50,409.42C211.54,415.41 209.65,423.95 208.94,430.07C208.16,436.75 207.97,445.60 208.39,454.68C208.76,462.48 209.93,474.18 210.99,480.68C212.05,487.18 214.24,498.35 215.86,505.50C217.47,512.65 220.89,525.92 223.45,535.00C226.01,544.08 231.65,563.42 235.98,578.00C240.31,592.58 245.04,608.72 246.48,613.89C247.93,619.05 248.89,623.84 248.63,624.53C248.36,625.23 245.89,626.54 243.14,627.45C240.39,628.37 236.30,630.45 234.04,632.09C231.78,633.72 229.05,636.51 227.97,638.28C226.78,640.23 226.01,643.27 226.02,646.00C226.03,648.48 226.44,651.15 226.95,651.95C227.67,653.09 227.97,652.88 228.37,650.95C228.65,649.60 229.14,646.90 229.45,644.95C229.76,643.00 231.32,639.85 232.91,637.95C234.50,636.05 236.08,634.76 236.41,635.09C236.74,635.41 236.24,637.21 235.30,639.09C234.36,640.96 233.43,644.98 233.22,648.00C232.97,651.58 233.31,654.09 234.17,655.18C234.90,656.11 236.40,657.01 237.50,657.18C238.99,657.42 239.44,656.99 239.28,655.50C239.15,654.40 239.52,651.13 240.10,648.24C240.68,645.33 242.27,641.65 243.66,639.99C245.05,638.35 247.04,637.00 248.09,637.00C249.14,637.00 250.00,637.21 250.00,637.46C250.00,637.71 248.88,639.57 247.50,641.60C245.64,644.34 245.00,646.59 245.00,650.42C245.00,653.50 245.64,656.47 246.60,657.83C247.79,659.54 248.98,660.04 251.35,659.81C254.17,659.53 254.53,659.13 254.76,656.00C254.90,654.08 255.27,651.01 255.57,649.19C255.87,647.37 257.71,644.11 259.67,641.94C261.63,639.77 263.86,638.00 264.62,638.00C265.38,638.00 266.00,638.39 266.00,638.88C266.00,639.36 265.30,640.34 264.43,641.05C263.57,641.77 262.17,643.71 261.31,645.36C260.21,647.50 259.92,649.93 260.32,653.79C260.63,656.77 261.17,659.50 261.52,659.86C261.88,660.21 265.39,660.48 269.33,660.45C273.27,660.42 280.09,659.89 284.49,659.26C292.48,658.13 292.48,658.13 297.79,652.12C300.71,648.81 306.45,643.58 310.55,640.49C318.00,634.89 318.00,634.89 318.00,622.12C318.00,615.09 317.52,604.43 316.93,598.42C316.35,592.42 314.97,583.00 313.87,577.50C312.78,572.00 310.61,564.95 309.06,561.82C307.50,558.70 303.35,551.72 299.83,546.32C296.30,540.92 292.66,534.81 291.73,532.75C290.79,530.69 290.48,529.00 291.02,529.00C291.56,529.00 292.01,529.34 292.03,529.75C292.04,530.16 293.92,532.52 296.20,535.00C298.48,537.48 303.49,543.74 307.35,548.92C311.20,554.10 315.73,560.63 317.43,563.43C319.12,566.23 323.82,572.91 327.88,578.28C331.93,583.65 335.65,588.28 336.13,588.58C336.61,588.87 337.00,589.83 337.00,590.71C337.00,591.87 336.35,591.59 334.55,589.65C333.21,588.20 331.86,587.41 331.57,587.89C331.27,588.38 331.69,589.33 332.51,590.01C333.33,590.69 334.00,591.86 334.00,592.61C334.00,593.37 334.90,594.55 336.00,595.23C337.10,595.92 338.00,596.85 338.00,597.31C338.00,597.76 337.10,597.85 336.00,597.50C334.85,597.14 334.00,597.32 334.00,597.93C334.00,598.52 334.44,599.00 334.97,599.00C335.50,599.00 335.76,599.56 335.55,600.25C335.34,600.94 334.92,603.62 334.61,606.22C334.05,610.94 334.05,610.94 336.62,609.76C338.93,608.71 339.00,608.52 337.34,607.87C335.98,607.33 336.37,607.12 338.81,607.07C341.05,607.02 341.89,607.37 341.41,608.15C340.91,608.95 341.49,609.09 343.35,608.63C345.70,608.04 346.00,608.25 346.00,610.51C346.00,611.92 346.56,613.25 347.25,613.48C347.94,613.72 349.94,614.11 351.69,614.36C354.35,614.73 354.96,614.44 355.32,612.65C355.56,611.47 355.59,612.41 355.39,614.75C355.18,617.36 355.46,619.00 356.13,619.00C356.72,619.00 356.95,618.33 356.64,617.50C356.32,616.67 356.41,616.00 356.83,616.00C357.25,616.00 358.13,616.53 358.78,617.18C359.43,617.83 360.15,618.17 360.37,617.93C360.59,617.69 363.12,608.09 366.00,596.58C368.87,585.08 372.01,573.15 372.99,570.08C373.96,567.01 376.66,558.42 378.99,551.00C381.32,543.58 384.30,535.36 385.63,532.75C386.95,530.14 388.31,528.00 388.65,528.00C388.98,528.00 388.94,530.81 388.55,534.25C388.17,537.69 383.35,558.50 377.86,580.50C372.36,602.50 366.68,624.21 365.23,628.75C362.59,637.00 362.59,637.00 350.54,637.02C343.92,637.03 335.52,637.67 331.87,638.44C328.22,639.21 323.05,640.97 320.37,642.34C317.69,643.71 312.95,647.12 309.84,649.92C306.59,652.83 303.07,657.22 301.59,660.20C299.52,664.35 299.00,666.85 299.00,672.64C299.00,678.99 299.27,680.08 301.22,681.44C302.44,682.30 303.79,683.00 304.22,683.00C304.65,683.00 305.00,680.05 305.00,676.45C305.00,672.42 305.62,668.67 306.61,666.70C307.50,664.94 309.61,662.04 311.31,660.25C313.05,658.42 315.40,657.00 316.70,657.00C317.96,657.00 319.00,657.37 319.00,657.81C319.00,658.26 317.61,659.95 315.91,661.56C314.21,663.18 312.19,665.72 311.41,667.20C310.63,668.69 310.00,672.15 310.00,674.90C310.00,677.65 310.50,681.01 311.12,682.36C311.97,684.23 313.16,684.90 316.17,685.19C320.10,685.56 320.10,685.56 319.48,681.89C319.14,679.88 319.36,676.40 319.96,674.16C320.56,671.92 322.26,668.66 323.73,666.91C325.20,665.16 327.94,663.09 329.81,662.31C331.68,661.52 333.48,661.14 333.79,661.46C334.11,661.78 332.74,663.72 330.74,665.77C328.75,667.82 326.64,670.77 326.06,672.32C325.48,673.86 325.00,677.06 325.00,679.41C325.00,682.24 325.59,684.21 326.75,685.21C327.71,686.05 329.18,687.01 330.00,687.34C330.82,687.68 335.77,687.68 341.00,687.36zM472.44,653.00C473.30,653.00 473.89,652.45 473.75,651.77C473.61,651.10 474.56,650.39 475.86,650.19C477.37,649.96 477.98,650.22 477.55,650.92C477.11,651.63 478.34,651.98 481.19,651.94C483.56,651.91 487.30,651.51 489.50,651.06C493.25,650.28 493.31,650.21 490.50,649.97C487.74,649.74 487.82,649.66 491.50,649.00C495.50,648.28 495.50,648.28 491.81,648.14C489.78,648.06 487.84,648.45 487.50,649.00C487.16,649.55 485.33,650.00 483.44,650.00C481.12,650.00 480.00,649.53 480.00,648.57C480.00,647.78 481.01,646.94 482.25,646.71C483.49,646.47 482.39,646.21 479.81,646.14C477.23,646.06 474.86,646.42 474.54,646.93C474.23,647.44 475.21,648.02 476.73,648.22C478.63,648.47 477.45,648.92 473.00,649.66C469.43,650.26 467.76,650.80 469.31,650.87C470.90,650.94 471.85,651.43 471.50,652.00C471.16,652.55 471.58,653.00 472.44,653.00zM345.75,629.93C350.49,629.98 353.00,629.61 353.00,628.88C353.00,628.11 353.48,628.16 354.52,629.02C355.36,629.72 356.34,630.00 356.69,629.64C357.04,629.29 356.78,629.00 356.11,629.00C355.43,629.00 355.16,628.54 355.51,627.98C355.86,627.42 356.52,627.21 357.00,627.50C357.47,627.79 358.15,627.09 358.52,625.94C358.88,624.79 358.92,623.58 358.59,623.26C358.27,622.93 358.00,623.42 358.00,624.33C358.00,625.25 357.89,626.01 357.75,626.01C357.61,626.02 352.32,626.30 346.00,626.64C339.68,626.98 333.82,627.68 333.00,628.20C331.67,629.05 331.67,629.10 333.00,628.71C333.82,628.47 335.40,628.63 336.50,629.07C337.60,629.50 341.76,629.89 345.75,629.93zM224.00,627.88C224.95,627.87 224.77,627.55 223.50,627.02C222.40,626.55 220.61,625.88 219.53,625.53C217.86,624.99 217.78,624.73 219.03,623.85C220.25,622.99 220.21,622.90 218.78,623.36C217.84,623.66 216.82,623.52 216.53,623.05C216.24,622.57 216.42,621.13 216.93,619.84C217.63,618.11 217.89,617.96 217.94,619.25C217.97,620.21 218.34,620.99 218.75,620.98C219.16,620.98 220.16,620.55 220.97,620.04C221.94,619.42 222.71,619.51 223.23,620.30C223.79,621.15 224.58,620.78 225.93,619.03C226.98,617.67 227.63,616.21 227.36,615.78C227.10,615.35 228.03,615.00 229.44,615.00C230.85,615.00 232.00,615.48 232.00,616.06C232.00,616.64 232.41,616.86 232.91,616.55C233.42,616.24 234.07,616.55 234.36,617.24C234.73,618.14 235.21,617.98 236.02,616.69C236.98,615.18 237.42,615.10 238.77,616.19C240.12,617.29 240.29,617.26 239.82,616.00C239.51,615.17 236.06,603.25 232.15,589.50C228.24,575.75 223.00,556.40 220.52,546.50C218.04,536.60 214.22,521.69 212.04,513.38C209.86,505.06 207.09,491.78 205.88,483.88C204.22,473.02 203.67,464.73 203.61,450.00C203.54,434.75 203.92,428.65 205.33,422.00C206.33,417.32 208.20,410.35 209.49,406.50C210.79,402.65 212.15,398.71 212.53,397.75C212.91,396.79 212.76,396.00 212.22,396.00C211.67,396.00 205.69,401.29 198.94,407.75C192.18,414.21 183.44,423.36 179.51,428.07C175.58,432.78 169.81,440.52 166.68,445.27C163.55,450.02 159.50,457.19 157.67,461.20C155.84,465.22 154.02,469.79 153.62,471.37C152.90,474.24 152.90,474.24 157.70,470.76C160.34,468.84 163.57,466.72 164.87,466.04C166.83,465.02 167.10,465.04 166.45,466.15C166.01,466.89 163.48,470.05 160.81,473.16C158.14,476.27 156.44,478.98 157.02,479.17C157.72,479.41 157.55,481.01 156.52,483.93C155.67,486.36 154.01,492.88 152.84,498.42C151.34,505.51 150.70,512.21 150.67,521.00C150.64,529.03 151.25,536.70 152.38,542.46C153.35,547.39 155.51,555.72 157.18,560.96C158.84,566.21 161.79,573.54 163.73,577.25C165.66,580.96 169.12,586.69 171.41,589.98C173.69,593.26 178.70,599.17 182.53,603.11C186.36,607.04 191.97,612.17 195.00,614.49C198.03,616.82 202.97,619.98 206.00,621.53C209.03,623.07 213.97,625.13 217.00,626.11C220.03,627.09 223.18,627.89 224.00,627.88zM575.25,602.39C577.04,601.47 580.41,599.41 582.75,597.81C585.09,596.21 587.00,595.38 587.00,595.95C587.00,596.53 586.66,597.01 586.25,597.03C585.84,597.05 583.99,598.43 582.15,600.10C580.31,601.77 579.05,603.38 579.35,603.68C579.64,603.98 581.37,603.17 583.19,601.90C585.01,600.62 586.65,599.22 586.83,598.79C587.02,598.35 587.74,598.00 588.44,598.00C589.14,598.00 591.93,595.64 594.64,592.75C597.35,589.86 601.69,584.29 604.28,580.37C606.88,576.44 609.00,572.37 609.00,571.32C609.00,570.26 609.41,568.97 609.91,568.45C610.41,567.93 611.76,564.42 612.91,560.64C614.20,556.40 615.00,551.06 614.99,546.64C614.99,542.72 614.10,535.81 613.02,531.29C611.94,526.78 609.97,520.42 608.64,517.16C607.32,513.91 604.30,508.37 601.94,504.87C599.57,501.37 595.04,495.95 591.87,492.83C588.45,489.46 583.47,485.90 579.62,484.06C576.06,482.36 571.12,480.59 568.65,480.13C566.18,479.66 563.70,479.57 563.14,479.92C562.49,480.32 564.04,488.38 567.39,502.02C571.40,518.36 573.41,524.71 575.80,528.56C577.52,531.34 580.11,536.18 581.54,539.32C583.28,543.11 584.35,547.53 584.72,552.51C585.05,556.78 584.90,560.00 584.37,560.00C583.87,560.00 582.57,557.44 581.48,554.32C580.39,551.19 579.05,548.50 578.50,548.32C577.86,548.12 577.48,553.74 577.45,563.75C577.41,576.82 577.03,580.81 575.22,587.21C574.01,591.45 573.30,595.61 573.62,596.46C573.95,597.31 573.76,598.00 573.21,598.00C572.66,598.00 571.93,598.74 571.58,599.64C571.05,601.02 571.20,601.08 572.50,600.00C573.35,599.29 574.28,598.95 574.57,599.24C574.86,599.53 574.40,600.46 573.55,601.31C572.70,602.16 572.00,603.13 572.00,603.45C572.00,603.78 573.46,603.30 575.25,602.39zM327.05,592.00C327.68,592.00 327.88,590.54 327.54,588.25C327.24,586.19 327.26,585.06 327.58,585.75C327.90,586.44 328.58,587.00 329.08,587.00C329.59,587.00 330.00,586.58 330.00,586.07C330.00,585.56 329.29,584.44 328.43,583.57C327.56,582.71 327.20,582.00 327.62,582.00C328.04,582.00 327.43,581.12 326.27,580.03C325.11,578.95 323.86,577.12 323.49,575.96C323.12,574.80 322.60,574.06 322.34,574.33C322.08,574.59 322.79,576.63 323.93,578.86C325.12,581.20 326.00,584.84 326.00,587.46C326.00,589.96 326.47,592.00 327.05,592.00zM594.75,572.99C594.34,573.00 594.00,572.21 594.00,571.25C594.00,570.29 594.94,567.02 596.09,564.00C597.39,560.60 598.39,555.02 598.73,549.39C599.06,543.86 598.78,537.64 598.02,533.59C597.32,529.92 597.03,526.64 597.36,526.30C597.70,525.97 599.20,528.35 600.70,531.60C603.10,536.78 603.42,538.66 603.35,547.00C603.31,552.68 602.65,558.44 601.71,561.33C600.85,563.99 599.10,567.70 597.82,569.57C596.55,571.45 595.16,572.99 594.75,572.99zM221.18,569.00C220.73,569.00 218.37,567.31 215.93,565.25C213.49,563.19 210.71,560.60 209.75,559.50C208.79,558.40 206.68,554.80 205.07,551.50C203.45,548.20 201.84,543.59 201.48,541.25C201.12,538.91 201.20,537.00 201.66,537.01C202.12,537.01 204.17,540.07 206.20,543.81C208.24,547.55 212.63,554.14 215.95,558.44C219.28,562.74 222.00,566.88 222.00,567.63C222.00,568.38 221.63,569.00 221.18,569.00zM325.08,554.00C324.58,554.00 323.22,552.47 322.06,550.60C320.91,548.73 319.07,544.61 317.98,541.44C316.89,538.28 316.01,534.52 316.03,533.09C316.07,530.50 316.07,530.50 317.94,532.74C318.96,533.97 321.20,538.33 322.90,542.42C324.61,546.51 326.00,550.79 326.00,551.93C326.00,553.07 325.59,554.00 325.08,554.00zM361.00,548.00C360.52,548.00 359.84,547.06 359.47,545.91C359.11,544.77 359.11,542.18 359.47,540.16C359.84,538.15 361.65,531.55 363.51,525.50C365.36,519.45 367.36,511.83 367.94,508.57C368.52,505.30 369.01,500.35 369.02,497.57C369.02,494.78 369.41,491.90 369.88,491.17C370.51,490.17 370.88,490.42 371.35,492.17C371.69,493.45 371.97,497.65 371.97,501.50C371.96,505.35 371.34,511.20 370.58,514.50C369.83,517.80 367.86,525.72 366.22,532.10C364.58,538.48 362.92,544.66 362.55,545.85C362.17,547.03 361.48,548.00 361.00,548.00zM164.12,539.00C163.63,539.00 162.73,537.00 162.12,534.56C161.50,532.11 161.00,527.87 161.00,525.12C161.00,522.37 161.40,519.87 161.88,519.57C162.37,519.27 163.27,521.02 163.88,523.46C164.50,525.89 165.00,530.39 165.00,533.44C165.00,536.50 164.60,539.00 164.12,539.00zM373.62,536.00C373.35,536.00 372.91,535.66 372.66,535.25C372.41,534.84 373.82,530.67 375.80,526.00C378.89,518.68 379.39,516.39 379.42,509.50C379.45,502.54 379.08,500.82 376.59,496.29C375.02,493.43 372.91,490.21 371.91,489.13C370.90,488.05 369.79,486.01 369.43,484.59C369.03,482.98 369.20,482.00 369.89,482.00C370.49,482.00 372.34,483.87 373.99,486.15C375.65,488.43 378.21,492.78 379.69,495.80C381.85,500.21 382.40,502.78 382.44,508.70C382.50,516.10 382.50,516.10 384.82,513.30C386.09,511.76 389.45,507.12 392.27,503.00C395.10,498.88 399.74,491.06 402.58,485.64C405.43,480.22 407.98,476.17 408.26,476.64C408.54,477.11 408.41,480.04 407.98,483.15C407.55,486.26 405.94,491.66 404.41,495.15C402.87,498.64 400.27,503.52 398.63,506.00C396.98,508.48 391.62,515.80 386.71,522.27C381.79,528.75 376.96,534.49 375.95,535.02C374.95,535.56 373.90,536.00 373.62,536.00zM303.20,522.00C302.75,522.00 300.34,520.70 297.83,519.11C295.32,517.51 292.10,514.68 290.67,512.81C289.25,510.94 286.91,506.86 285.47,503.73C284.04,500.60 282.17,494.23 281.31,489.57C280.41,484.63 280.05,479.56 280.45,477.42C280.83,475.39 281.51,474.14 281.97,474.62C282.43,475.10 283.79,479.55 285.00,484.50C286.22,489.45 288.62,496.20 290.35,499.50C292.17,502.96 296.36,508.29 300.25,512.08C303.96,515.70 307.00,518.96 307.00,519.33C307.00,519.70 306.32,520.00 305.50,520.00C304.68,520.00 304.00,520.45 304.00,521.00C304.00,521.55 303.64,522.00 303.20,522.00zM414.98,494.21C413.59,495.88 413.06,496.09 413.03,494.98C413.01,494.14 414.12,488.07 415.49,481.48C416.86,474.89 417.99,466.91 417.99,463.75C418.00,460.59 418.43,458.00 418.96,458.00C419.49,458.00 420.44,459.91 421.07,462.25C421.70,464.59 422.00,469.65 421.74,473.50C421.47,477.35 420.27,483.07 419.07,486.21C417.87,489.35 416.03,492.95 414.98,494.21zM327.30,449.92C326.76,451.25 326.08,451.93 325.78,451.42C325.47,450.91 324.90,445.77 324.50,440.00C324.08,433.90 322.99,427.43 321.91,424.56C320.89,421.84 320.21,419.45 320.41,419.25C320.62,419.05 321.67,420.15 322.76,421.69C323.84,423.24 325.56,426.07 326.58,428.00C327.95,430.61 328.40,433.53 328.34,439.50C328.30,443.90 327.83,448.59 327.30,449.92zM345.39,430.30C344.54,430.79 344.00,430.64 344.00,429.93C344.00,429.28 346.01,426.00 348.47,422.63C350.93,419.26 353.97,415.36 355.23,413.98C356.49,412.59 358.62,410.68 359.98,409.73C361.34,408.78 363.02,408.00 363.72,408.00C364.43,408.00 365.00,408.50 365.00,409.10C365.00,409.71 360.90,414.55 355.89,419.85C350.88,425.16 346.15,429.86 345.39,430.30zM281.88,424.00C281.19,424.00 281.03,422.98 281.44,421.25C281.80,419.74 283.28,416.13 284.72,413.23C286.17,410.33 287.95,407.46 288.68,406.85C289.71,406.00 290.00,406.23 290.00,407.90C290.00,409.08 288.42,413.19 286.49,417.02C284.56,420.86 282.48,424.00 281.88,424.00zM386.59,421.00C384.73,421.00 384.73,420.96 386.60,418.87C387.64,417.70 390.15,415.69 392.17,414.41C394.18,413.13 397.00,411.79 398.42,411.43C399.84,411.07 401.00,411.17 401.00,411.65C401.00,412.13 398.19,414.42 394.74,416.76C391.30,419.09 387.63,421.00 386.59,421.00zM369.00,390.53C390.22,390.30 407.75,389.60 416.83,388.61C424.71,387.75 436.86,386.12 443.83,384.99C450.80,383.86 460.32,382.04 465.00,380.94C469.68,379.85 478.35,377.39 484.27,375.48C490.20,373.58 499.82,369.77 505.66,367.02C511.50,364.26 516.81,361.28 517.46,360.38C518.21,359.36 519.37,358.99 520.58,359.38C521.63,359.73 524.31,361.69 526.52,363.75C528.74,365.81 531.58,368.38 532.83,369.46C534.79,371.13 535.26,371.21 536.05,369.96C536.55,369.16 536.97,365.57 536.96,362.00C536.96,358.43 536.50,353.48 535.95,351.00C535.40,348.52 533.79,344.33 532.38,341.68C530.96,339.03 530.07,336.60 530.39,336.27C530.72,335.95 534.23,336.66 538.21,337.86C543.03,339.31 546.56,341.11 548.82,343.27C550.68,345.04 554.67,349.76 557.69,353.75C560.71,357.74 563.59,360.75 564.09,360.44C564.59,360.13 565.00,358.00 565.00,355.69C564.99,353.39 564.35,347.51 563.55,342.64C562.76,337.76 561.32,331.24 560.35,328.14C559.09,324.13 557.25,321.17 553.98,317.89C550.98,314.89 547.35,312.53 543.54,311.10C540.33,309.90 534.12,308.43 529.73,307.84C525.35,307.25 519.33,306.97 516.35,307.22C512.74,307.52 511.06,307.31 511.30,306.58C511.49,305.99 512.96,304.83 514.57,304.01C516.52,303.01 520.50,302.51 526.50,302.51C534.73,302.50 536.10,302.79 542.50,305.93C546.35,307.82 550.77,309.95 552.33,310.67C555.15,311.97 555.15,311.97 554.47,308.73C554.10,306.96 549.41,296.50 544.05,285.50C535.82,268.62 533.54,264.80 529.45,261.00C525.82,257.65 525.02,256.43 526.27,256.19C527.19,256.01 532.34,257.41 537.72,259.29C543.10,261.17 548.36,263.08 549.42,263.53C550.92,264.17 550.63,263.32 548.05,259.58C546.25,256.96 542.80,252.59 540.39,249.87C537.97,247.16 536.00,244.49 536.00,243.94C536.00,243.40 536.91,240.37 538.03,237.23C539.14,234.08 540.94,228.07 542.02,223.87C543.10,219.67 544.95,211.57 546.14,205.87C547.70,198.35 548.41,190.55 548.75,177.49C549.11,163.33 548.85,157.55 547.53,150.49C546.61,145.54 545.02,139.60 544.00,137.28C542.90,134.78 540.78,132.22 538.82,131.03C536.41,129.56 533.76,129.01 529.15,129.00C524.72,129.00 520.03,129.93 513.65,132.06C508.62,133.74 500.23,137.38 495.00,140.15C489.77,142.92 481.13,148.10 475.79,151.67C470.45,155.24 461.59,161.93 456.09,166.52C450.59,171.12 445.17,175.37 444.05,175.97C442.26,176.93 442.00,176.78 441.99,174.79C441.99,173.21 444.81,169.78 451.05,163.75C456.04,158.94 459.53,155.01 458.81,155.01C458.09,155.02 455.02,155.69 452.00,156.50C448.98,157.31 444.50,157.98 442.05,157.99C439.44,158.00 437.99,157.64 438.55,157.12C439.07,156.64 441.89,155.37 444.82,154.30C447.74,153.23 450.15,151.94 450.18,151.43C450.20,150.92 447.01,149.49 443.09,148.27C439.17,147.04 433.15,145.58 429.71,145.03C425.54,144.37 420.52,144.37 414.56,145.05C408.59,145.73 405.33,145.73 404.65,145.05C403.98,144.38 404.21,143.42 405.36,142.16C407.00,140.34 406.94,140.24 403.91,139.63C402.17,139.28 395.07,139.01 388.12,139.03C377.61,139.05 374.37,139.44 368.73,141.36C363.99,142.98 361.70,143.34 361.08,142.58C360.59,141.99 360.04,140.38 359.85,139.00C359.56,136.90 358.89,136.45 355.70,136.19C353.01,135.96 350.66,136.61 347.70,138.38C345.39,139.76 342.38,142.35 341.00,144.15C339.62,145.94 337.53,148.56 336.34,149.96C335.14,151.35 333.87,152.20 333.51,151.84C333.15,151.48 332.72,150.35 332.56,149.34C332.32,147.83 331.50,147.55 327.99,147.78C325.64,147.94 318.94,149.68 313.11,151.65C307.27,153.61 299.75,156.47 296.39,157.99C293.02,159.51 289.96,161.26 289.58,161.88C289.19,162.49 288.07,163.00 287.08,163.00C286.08,163.00 281.72,160.20 277.39,156.78C273.05,153.36 264.66,147.29 258.74,143.29C252.83,139.29 244.05,134.05 239.24,131.65C234.43,129.25 227.37,126.25 223.55,124.99C219.73,123.74 214.12,122.66 211.09,122.60C205.98,122.51 205.47,122.71 204.20,125.32C203.06,127.65 203.01,131.05 203.91,144.82C204.51,153.99 205.72,166.22 206.58,172.00C207.45,177.78 209.02,184.95 210.07,187.93C211.12,190.92 212.51,193.70 213.16,194.10C213.87,194.54 212.76,195.23 210.42,195.81C208.26,196.36 205.26,197.08 203.75,197.42C202.24,197.76 201.00,198.42 201.00,198.90C201.00,199.37 203.22,200.71 205.94,201.88C208.65,203.04 211.39,204.00 212.02,204.00C212.81,204.00 212.97,205.25 212.51,207.93C212.11,210.32 212.32,212.76 213.05,214.18C213.71,215.45 215.17,217.51 216.30,218.75C217.43,219.99 219.08,221.00 219.97,221.00C220.87,221.00 222.13,220.47 222.79,219.81C223.70,218.90 223.61,218.23 222.39,216.88C221.52,215.91 221.13,214.61 221.52,213.97C221.99,213.20 224.24,213.00 228.22,213.35C231.52,213.64 234.44,214.11 234.71,214.38C234.98,214.65 231.88,218.61 227.82,223.19C220.64,231.27 220.28,231.92 215.10,246.50C212.17,254.75 208.67,263.39 207.31,265.71C205.96,268.02 203.30,271.28 201.40,272.95C199.50,274.62 196.20,276.88 194.06,277.97C191.92,279.06 186.98,280.48 183.09,281.12C179.19,281.77 176.00,282.67 176.00,283.14C176.00,283.61 177.84,285.32 180.09,286.95C183.90,289.71 184.60,289.87 190.59,289.31C195.00,288.90 197.00,289.06 197.00,289.83C197.00,290.44 194.41,291.72 191.25,292.66C188.09,293.60 182.57,294.40 179.00,294.44C175.43,294.47 171.04,294.20 169.25,293.84C166.49,293.27 166.00,293.46 166.00,295.08C166.00,296.13 167.69,298.91 169.75,301.25C171.81,303.59 174.18,306.07 175.00,306.77C175.82,307.47 179.65,309.82 183.50,312.01C190.50,315.97 190.50,315.97 186.21,315.99C183.85,315.99 180.14,315.09 177.96,313.98C175.15,312.55 174.00,312.33 174.00,313.23C174.01,313.93 174.89,315.95 175.97,317.72C177.05,319.49 179.85,322.33 182.19,324.02C184.53,325.72 189.94,328.99 194.22,331.30C198.50,333.61 202.00,335.89 202.00,336.36C202.00,336.84 200.31,336.93 198.25,336.56C196.19,336.20 190.79,334.15 186.25,332.00C181.71,329.85 178.00,328.47 178.00,328.94C178.00,329.40 180.00,332.01 182.45,334.73C184.89,337.45 189.28,341.47 192.20,343.66C195.11,345.85 200.78,350.03 204.79,352.95C208.80,355.86 211.86,358.47 211.60,358.74C211.33,359.01 208.98,358.50 206.38,357.61C203.77,356.73 200.94,356.01 200.07,356.03C198.82,356.06 198.91,356.38 200.50,357.61C201.60,358.47 205.43,360.64 209.00,362.44C212.57,364.24 221.35,367.78 228.50,370.30C235.65,372.82 245.55,376.05 250.50,377.48C255.45,378.91 264.90,381.17 271.50,382.49C278.10,383.82 288.68,385.61 295.00,386.47C301.32,387.32 313.02,388.67 321.00,389.45C331.36,390.47 345.07,390.78 369.00,390.53zM342.60,378.91C341.45,378.86 338.98,378.38 337.12,377.85C335.26,377.31 332.65,376.16 331.32,375.29C329.99,374.42 328.21,372.38 327.38,370.76C326.54,369.14 326.01,367.65 326.21,367.45C326.41,367.26 328.88,368.24 331.70,369.63C335.00,371.27 338.50,372.17 341.55,372.17C344.78,372.17 347.18,371.50 349.10,370.08C350.65,368.94 352.39,368.00 352.96,368.00C353.53,368.00 354.00,368.70 354.00,369.55C354.00,370.40 353.34,372.38 352.53,373.94C351.71,375.53 349.66,377.27 347.88,377.89C346.13,378.50 343.76,378.96 342.60,378.91zM372.00,359.36C368.98,359.62 364.25,359.48 361.50,359.05C358.75,358.61 354.82,357.55 352.76,356.69C350.70,355.82 347.00,353.72 344.52,352.02C340.02,348.92 340.02,348.92 333.41,352.91C329.77,355.11 324.39,357.40 321.46,358.01C317.54,358.82 314.47,358.81 309.82,357.98C306.34,357.36 301.70,356.05 299.50,355.08C297.30,354.11 294.04,352.08 292.25,350.57C290.46,349.06 289.00,347.41 289.00,346.91C289.00,346.41 289.91,346.00 291.03,346.00C292.15,346.00 295.41,347.20 298.28,348.67C302.31,350.73 305.39,351.45 311.77,351.80C319.50,352.22 320.47,352.05 326.46,349.09C329.99,347.36 333.98,344.62 335.34,343.01C336.85,341.22 338.06,338.17 338.48,335.13C338.90,332.11 338.74,329.37 338.07,328.12C337.46,327.00 334.96,324.69 332.50,323.00C330.04,321.31 327.57,319.07 327.01,318.03C326.46,316.98 326.00,315.41 326.00,314.53C326.00,313.66 326.68,312.68 327.52,312.36C328.43,312.00 329.81,312.76 331.00,314.27C332.08,315.64 334.78,317.50 337.01,318.39C340.60,319.82 341.44,319.84 344.52,318.55C346.43,317.76 348.53,315.93 349.19,314.49C350.08,312.53 350.90,312.01 352.44,312.42C353.57,312.72 354.84,312.98 355.25,312.99C355.66,312.99 356.00,314.15 356.00,315.55C356.00,317.04 354.86,319.15 353.25,320.65C351.74,322.06 348.83,324.06 346.78,325.11C344.74,326.15 342.60,327.88 342.03,328.94C341.47,330.00 341.00,332.27 341.00,333.98C341.00,335.70 341.63,338.31 342.41,339.80C343.19,341.28 345.10,343.69 346.66,345.14C348.22,346.59 351.52,348.83 354.00,350.12C357.91,352.15 359.94,352.46 369.50,352.48C379.62,352.50 380.92,352.28 385.79,349.71C388.70,348.18 391.51,347.20 392.04,347.52C392.57,347.85 393.00,348.46 393.00,348.87C393.00,349.28 391.62,351.03 389.94,352.75C388.26,354.47 384.77,356.56 382.19,357.38C379.61,358.21 375.02,359.10 372.00,359.36zM452.00,333.46C447.50,334.11 447.50,334.11 450.00,332.08C451.38,330.97 456.33,328.51 461.02,326.62C465.70,324.74 471.66,322.87 474.27,322.48C477.46,322.00 479.00,322.13 479.00,322.87C479.00,323.47 477.31,324.81 475.25,325.85C473.19,326.89 468.12,328.88 464.00,330.28C459.88,331.67 454.48,333.10 452.00,333.46zM244.87,325.86C244.12,325.79 240.46,325.29 236.75,324.75C233.04,324.21 230.00,323.40 230.00,322.96C230.00,322.52 231.31,321.87 232.92,321.52C234.52,321.17 237.62,321.36 239.80,321.95C241.98,322.53 244.32,323.69 245.01,324.51C246.00,325.71 245.98,325.97 244.87,325.86zM452.34,325.00C451.60,325.00 451.00,324.75 451.00,324.45C451.00,324.14 453.92,322.53 457.49,320.86C461.05,319.19 464.52,318.01 465.19,318.23C465.86,318.45 463.55,320.07 460.05,321.82C456.55,323.57 453.08,325.00 452.34,325.00zM416.50,322.82C414.30,322.75 411.15,322.52 409.50,322.30C407.85,322.08 404.02,321.21 401.00,320.36C397.98,319.52 393.93,317.86 392.00,316.69C390.07,315.52 386.45,312.66 383.95,310.33C379.40,306.10 379.40,306.10 374.08,307.66C369.82,308.91 368.60,308.97 367.97,307.95C367.54,307.25 367.46,305.97 367.79,305.09C368.12,304.22 370.74,299.86 373.60,295.40C376.47,290.95 381.89,284.26 385.65,280.53C389.41,276.81 395.87,271.78 400.00,269.36C404.12,266.94 409.80,264.10 412.61,263.05C415.42,262.00 421.48,260.62 426.08,259.99C430.73,259.35 437.58,259.14 441.48,259.51C445.34,259.87 453.30,261.26 459.18,262.58C465.05,263.91 471.17,265.00 472.78,265.00C474.39,265.00 477.23,264.48 479.10,263.83C480.97,263.19 484.75,261.16 487.50,259.33C490.25,257.49 492.64,256.43 492.83,256.98C493.01,257.53 492.65,259.53 492.02,261.43C491.40,263.32 489.45,266.29 487.69,268.02C485.94,269.75 483.15,271.88 481.50,272.75C479.85,273.62 476.72,274.87 474.55,275.51C470.78,276.64 470.50,277.01 468.49,283.62C467.32,287.43 465.06,292.95 463.47,295.88C461.88,298.81 457.37,304.19 453.45,307.85C449.53,311.51 443.98,315.78 441.11,317.34C438.20,318.93 432.48,320.79 428.19,321.56C423.96,322.31 418.70,322.88 416.50,322.82zM291.50,321.42C287.65,321.67 282.14,321.47 279.26,320.95C276.38,320.44 271.98,319.06 269.50,317.89C267.01,316.73 262.98,313.55 260.54,310.84C258.10,308.12 255.12,303.34 253.91,300.20C252.30,296.01 251.59,291.54 251.23,283.27C250.75,272.04 250.75,272.04 247.13,271.46C245.13,271.14 242.51,270.47 241.30,269.98C240.10,269.49 237.25,267.42 234.99,265.37C232.72,263.32 230.29,260.49 229.58,259.08C228.87,257.66 228.01,255.04 227.67,253.25C227.33,251.46 227.23,250.00 227.44,250.00C227.66,250.00 230.21,252.03 233.12,254.51C236.02,256.99 239.82,259.41 241.57,259.89C243.64,260.46 247.81,260.26 253.62,259.31C258.53,258.50 266.30,258.02 271.00,258.23C278.54,258.56 280.35,259.05 287.00,262.50C292.01,265.10 296.66,268.61 301.00,273.05C304.57,276.71 309.33,282.81 311.56,286.60C313.80,290.40 316.39,295.42 317.31,297.77C318.24,300.12 319.00,303.23 319.00,304.68C319.00,306.47 317.66,308.58 314.81,311.30C312.50,313.49 307.89,316.56 304.56,318.12C300.37,320.07 296.33,321.09 291.50,321.42zM244.31,317.88C242.76,317.82 239.25,317.37 236.50,316.89C233.75,316.42 230.24,316.28 228.71,316.60C227.18,316.92 223.69,316.87 220.96,316.49C218.23,316.12 216.00,315.40 216.00,314.91C216.00,314.41 219.94,313.98 224.75,313.96C233.50,313.91 233.50,313.91 229.81,311.97C227.79,310.89 225.81,309.50 225.42,308.87C224.91,308.04 225.77,307.92 228.54,308.44C230.64,308.84 235.40,310.69 239.11,312.55C242.82,314.42 246.14,316.41 246.48,316.98C246.86,317.59 246.00,317.95 244.31,317.88zM416.00,317.91C417.93,317.95 422.37,317.52 425.87,316.95C429.37,316.38 433.96,315.04 436.07,313.96C438.17,312.89 441.05,310.86 442.45,309.45C443.86,308.05 445.90,305.16 446.98,303.03C448.07,300.91 449.44,297.01 450.03,294.37C450.62,291.73 450.81,287.85 450.46,285.75C449.81,281.93 449.81,281.93 446.38,287.71C444.49,290.90 441.72,294.64 440.23,296.04C438.73,297.43 436.24,300.25 434.70,302.29C433.16,304.33 430.50,306.73 428.78,307.61C426.64,308.72 424.11,309.07 420.65,308.74C416.38,308.33 415.07,307.66 411.90,304.26C409.84,302.05 407.68,298.51 407.09,296.38C406.50,294.24 406.01,290.84 406.01,288.81C406.00,286.78 405.63,284.89 405.18,284.61C404.73,284.33 403.16,284.73 401.69,285.49C400.22,286.25 396.77,288.81 394.01,291.18C391.26,293.56 389.00,296.30 389.00,297.28C389.00,298.26 388.32,299.32 387.50,299.64C386.68,299.95 386.00,300.54 386.00,300.94C386.00,301.33 387.33,303.67 388.96,306.12C390.58,308.57 393.73,311.60 395.95,312.85C398.18,314.10 402.81,315.74 406.25,316.48C409.69,317.23 414.07,317.87 416.00,317.91zM288.57,316.90C291.91,316.95 296.70,316.30 299.21,315.45C301.71,314.59 305.62,312.31 307.88,310.37C311.11,307.61 312.00,306.16 311.99,303.67C311.98,301.93 310.91,298.19 309.59,295.37C308.28,292.55 306.71,289.94 306.11,289.57C305.47,289.17 304.55,290.06 303.92,291.69C303.32,293.24 301.87,296.48 300.70,298.90C299.53,301.31 297.20,304.13 295.53,305.14C293.87,306.16 290.88,306.99 288.90,307.00C286.83,307.00 283.85,306.04 281.90,304.75C279.47,303.14 277.28,300.00 274.22,293.75C271.01,287.17 269.46,285.00 267.98,285.00C266.90,285.00 265.45,284.10 264.77,283.00C264.08,281.90 263.01,281.00 262.38,281.00C261.76,281.00 260.67,280.30 259.96,279.45C258.94,278.22 258.51,278.17 257.85,279.20C257.40,279.92 257.02,283.08 257.02,286.24C257.01,289.49 257.82,294.14 258.89,296.96C259.93,299.70 262.23,303.76 263.99,305.98C265.75,308.21 269.21,311.21 271.68,312.66C274.14,314.10 277.59,315.63 279.33,316.04C281.07,316.46 285.23,316.84 288.57,316.90zM454.64,302.50C455.51,301.40 457.28,298.17 458.56,295.33C459.85,292.49 461.60,287.47 462.45,284.19C463.30,280.90 464.00,277.53 464.00,276.70C464.00,275.87 462.58,274.70 460.85,274.10C459.12,273.49 457.32,273.00 456.85,273.00C456.38,273.00 455.99,276.71 455.98,281.25C455.97,285.79 455.30,292.65 454.48,296.50C453.67,300.35 453.01,303.72 453.03,304.00C453.05,304.27 453.77,303.60 454.64,302.50zM438.75,287.65C439.43,287.66 440.75,286.83 441.67,285.82C442.81,284.55 443.30,282.36 443.23,278.90C443.16,276.12 442.60,273.23 441.99,272.48C441.37,271.74 439.51,270.83 437.85,270.47C435.51,269.95 434.30,270.31 432.42,272.08C430.73,273.67 430.00,275.42 430.01,277.92C430.02,279.89 430.59,282.61 431.27,283.96C431.96,285.31 433.64,286.69 435.01,287.02C436.38,287.36 438.06,287.64 438.75,287.65zM278.25,286.99C279.21,287.00 280.90,286.10 282.00,285.00C283.10,283.90 284.00,281.71 284.00,280.13C284.00,278.56 283.07,276.08 281.93,274.63C280.52,272.84 278.90,272.00 276.88,272.00C275.06,272.00 272.96,272.95 271.45,274.45C270.10,275.80 269.01,277.94 269.02,279.20C269.02,280.47 269.37,282.04 269.79,282.69C270.20,283.35 271.89,284.58 273.52,285.44C275.16,286.29 277.29,286.99 278.25,286.99zM384.39,264.00C384.17,264.00 384.00,262.94 384.00,261.65C384.00,260.36 385.32,257.48 386.93,255.26C388.54,253.03 390.89,250.49 392.15,249.61C393.41,248.72 394.79,248.00 395.22,248.00C395.65,248.00 396.00,248.47 396.00,249.05C396.00,249.63 393.47,253.23 390.39,257.05C387.30,260.87 384.60,264.00 384.39,264.00zM527.75,238.95C527.06,238.92 524.92,237.77 523.00,236.40C521.08,235.02 515.23,231.38 510.00,228.30C504.77,225.23 500.31,222.56 500.08,222.36C499.85,222.16 499.91,221.75 500.21,221.45C500.51,221.16 502.95,221.45 505.63,222.10C508.31,222.76 513.07,224.58 516.21,226.14C519.35,227.71 523.51,230.39 525.46,232.10C527.41,233.81 529.00,236.06 529.00,237.10C529.00,238.15 528.44,238.98 527.75,238.95zM530.72,230.93C530.60,230.89 528.74,229.54 526.60,227.93C524.45,226.32 518.57,223.67 513.52,222.06C508.48,220.44 501.46,218.66 497.92,218.11C494.39,217.55 489.36,216.82 486.75,216.49C483.82,216.11 482.00,215.38 482.00,214.57C482.00,213.86 482.88,212.15 483.96,210.77C485.04,209.40 488.31,207.24 491.21,205.97C494.77,204.42 499.15,203.52 504.63,203.21C509.10,202.97 513.55,203.21 514.53,203.75C516.06,204.61 515.85,204.89 512.90,205.82C511.03,206.41 507.59,207.38 505.25,207.98C502.91,208.58 501.00,209.41 501.00,209.81C501.00,210.21 504.94,211.75 509.75,213.22C514.56,214.69 521.51,217.72 525.20,219.95C528.88,222.18 532.37,224.00 532.95,224.00C533.53,224.00 534.00,224.25 534.00,224.55C534.00,224.85 533.31,226.43 532.47,228.05C531.64,229.67 530.85,230.97 530.72,230.93zM233.22,209.23C227.82,209.52 225.06,209.32 225.28,208.65C225.47,208.08 226.72,206.81 228.06,205.81C229.40,204.81 233.64,203.34 237.49,202.54C241.60,201.68 244.99,200.37 245.74,199.35C246.43,198.40 247.00,197.33 247.00,196.97C247.00,196.61 243.62,194.83 239.50,193.00C235.38,191.17 232.00,189.36 232.00,188.96C232.00,188.57 230.61,187.97 228.91,187.63C227.07,187.26 226.00,186.51 226.24,185.77C226.47,185.08 229.10,183.77 232.08,182.84C235.06,181.92 240.62,180.83 244.43,180.43C251.10,179.73 251.28,179.64 249.30,178.04C248.16,177.12 243.47,175.19 238.87,173.75C234.27,172.32 229.26,170.87 227.75,170.55C226.24,170.23 225.00,169.30 225.00,168.50C225.00,167.70 226.16,166.75 227.58,166.39C229.00,166.03 232.71,166.02 235.83,166.36C240.43,166.86 241.12,166.76 239.50,165.81C238.40,165.17 237.05,164.04 236.50,163.31C235.95,162.57 233.78,161.75 231.68,161.48C229.57,161.21 227.15,160.29 226.30,159.44C225.44,158.58 224.07,158.14 223.24,158.46C222.42,158.78 221.10,158.24 220.30,157.27C219.00,155.67 218.92,155.84 219.46,159.00C219.79,160.93 220.33,165.03 220.66,168.11C221.07,172.00 220.88,173.95 220.04,174.47C219.37,174.89 218.35,174.75 217.77,174.17C217.20,173.60 215.22,166.68 213.39,158.81C211.55,150.94 209.75,141.91 209.39,138.75C208.93,134.69 209.08,133.00 209.90,133.00C210.54,133.00 214.42,134.59 218.53,136.54C222.63,138.49 229.52,142.74 233.82,145.99C238.13,149.23 244.58,155.00 248.17,158.80C251.76,162.60 256.74,168.59 259.25,172.11C261.76,175.62 264.60,180.18 265.58,182.24C266.56,184.29 267.17,186.11 266.93,186.29C266.69,186.46 264.02,188.57 261.00,190.97C257.98,193.38 252.35,198.37 248.50,202.07C241.50,208.79 241.50,208.79 233.22,209.23zM475.83,208.00C475.34,208.00 474.69,207.37 474.40,206.59C474.10,205.81 474.54,203.86 475.38,202.24C476.21,200.62 478.55,197.85 480.57,196.07C482.59,194.30 485.32,192.36 486.62,191.76C487.93,191.17 489.00,190.32 489.00,189.89C489.00,189.45 487.06,189.68 484.69,190.39C482.32,191.11 478.26,192.50 475.66,193.49C473.07,194.48 470.66,195.00 470.31,194.64C469.95,194.28 470.71,192.87 471.99,191.51C473.28,190.14 476.74,188.12 479.68,187.02C482.62,185.92 488.06,184.35 491.76,183.54C495.47,182.73 502.02,181.60 506.32,181.03C510.62,180.46 515.46,180.00 517.07,180.00C518.68,180.00 520.00,180.36 520.00,180.81C520.00,181.25 516.74,183.12 512.75,184.96C505.50,188.30 505.50,188.30 510.50,189.03C513.25,189.43 517.30,190.27 519.50,190.90C521.70,191.53 524.57,192.64 525.89,193.38C527.48,194.27 527.88,194.95 527.10,195.44C526.46,195.84 520.65,196.12 514.21,196.07C506.67,196.02 500.40,196.53 496.65,197.50C493.44,198.34 488.72,200.23 486.16,201.70C483.60,203.17 480.43,205.19 479.12,206.19C477.80,207.18 476.33,208.00 475.83,208.00zM537.50,198.00C536.77,198.00 536.01,197.52 535.81,196.94C535.62,196.35 536.05,190.39 536.77,183.69C537.49,176.98 537.87,168.19 537.61,164.15C537.35,160.11 536.85,156.52 536.49,156.16C536.14,155.81 535.33,156.41 534.70,157.51C534.07,158.60 533.48,159.72 533.39,160.00C533.30,160.28 532.89,161.54 532.48,162.81C532.05,164.16 531.19,164.90 530.40,164.60C529.67,164.32 528.13,165.42 526.97,167.05C525.59,168.98 523.94,170.04 522.18,170.11C519.50,170.21 519.50,170.21 522.25,171.30C523.76,171.90 525.00,172.75 525.00,173.19C525.00,173.64 520.33,174.00 514.63,174.00C508.93,174.00 500.27,174.69 495.38,175.54C490.50,176.38 483.74,178.36 480.38,179.93C477.01,181.49 471.85,184.40 468.91,186.37C465.88,188.41 463.19,189.59 462.70,189.10C462.21,188.61 462.89,186.56 464.29,184.36C465.64,182.24 467.70,179.64 468.87,178.60C470.04,177.55 471.00,176.16 471.00,175.51C471.00,174.85 472.46,173.01 474.25,171.41C476.04,169.81 479.75,166.65 482.50,164.38C485.25,162.12 491.74,157.44 496.91,153.99C502.09,150.54 509.97,146.01 514.41,143.93C518.86,141.85 524.56,139.63 527.08,139.00C529.60,138.37 533.18,137.99 535.03,138.17C537.64,138.43 538.85,139.27 540.37,141.88C541.95,144.60 542.42,147.71 542.79,157.90C543.05,164.92 542.72,174.53 542.06,179.52C541.40,184.46 540.41,190.64 539.85,193.25C539.25,196.03 538.28,198.00 537.50,198.00z" />

</svg>